<svg width="24" height="24" viewBox="0 0 24 24" fill="none" xmlns="http://www.w3.org/2000/svg">
<path fill-rule="evenodd" clip-rule="evenodd" d="M11.9305 3.78747C11.7604 3.75363 11.5383 3.75 10.875 3.75H8.40003C7.10604 3.75 6.21099 3.75159 5.53733 3.84217C4.88525 3.92984 4.554 4.08831 4.32117 4.32114C4.08834 4.55397 3.92987 4.88522 3.8422 5.5373C3.75163 6.21096 3.75003 7.10601 3.75003 8.4V10.875C3.75003 11.5382 3.75366 11.7603 3.7875 11.9304C3.94137 12.704 4.54606 13.3087 5.31961 13.4625C5.48971 13.4964 5.7118 13.5 6.37503 13.5C6.78925 13.5 7.12503 13.8358 7.12503 14.25C7.12503 14.6642 6.78925 15 6.37503 15C6.34679 15 6.31896 15 6.29155 15C5.74511 15.0002 5.36171 15.0003 5.02697 14.9337C3.65839 14.6615 2.58855 13.5916 2.31632 12.2231C2.24974 11.8883 2.24985 11.5049 2.25002 10.9585C2.25002 10.9311 2.25003 10.9032 2.25003 10.875L2.25003 8.34579C2.25001 7.11909 2.24999 6.12273 2.35557 5.33743C2.4656 4.51902 2.70253 3.81847 3.26051 3.26048C3.8185 2.7025 4.51905 2.46557 5.33746 2.35554C6.12276 2.24996 7.11912 2.24998 8.34582 2.25L10.875 2.25C10.9033 2.25 10.9311 2.24999 10.9585 2.24999C11.5049 2.24982 11.8884 2.24971 12.2231 2.31629C13.5917 2.58852 14.6615 3.65836 14.9337 5.02694C15.0003 5.36168 15.0002 5.74508 15.0001 6.29152C15 6.31894 15 6.34676 15 6.375C15 6.78922 14.6642 7.125 14.25 7.125C13.8358 7.125 13.5 6.78922 13.5 6.375C13.5 5.71177 13.4964 5.48968 13.4626 5.31958C13.3087 4.54603 12.704 3.94134 11.9305 3.78747ZM15.0958 9H15.6542C16.8809 8.99998 17.8773 8.99996 18.6626 9.10554C19.481 9.21557 20.1816 9.4525 20.7396 10.0105C21.2975 10.5685 21.5345 11.269 21.6445 12.0874C21.7501 12.8727 21.7501 13.8691 21.75 15.0958V15.6542C21.7501 16.8809 21.7501 17.8773 21.6445 18.6626C21.5345 19.481 21.2975 20.1815 20.7396 20.7395C20.1816 21.2975 19.481 21.5344 18.6626 21.6445C17.8773 21.75 16.8809 21.75 15.6542 21.75H15.0958C13.8691 21.75 12.8728 21.75 12.0875 21.6445C11.269 21.5344 10.5685 21.2975 10.0105 20.7395C9.45253 20.1815 9.2156 19.481 9.10557 18.6626C8.99999 17.8773 9.00001 16.8809 9.00003 15.6542V15.0958C9.00001 13.8691 8.99999 12.8727 9.10557 12.0874C9.2156 11.269 9.45253 10.5685 10.0105 10.0105C10.5685 9.4525 11.269 9.21557 12.0875 9.10554C12.8728 8.99996 13.8691 8.99998 15.0958 9ZM12.2873 10.5922C11.6353 10.6798 11.304 10.8383 11.0712 11.0711C10.8383 11.304 10.6799 11.6352 10.5922 12.2873C10.5016 12.961 10.5 13.856 10.5 15.15V15.6C10.5 16.894 10.5016 17.789 10.5922 18.4627C10.6799 19.1148 10.8383 19.446 11.0712 19.6789C11.304 19.9117 11.6353 20.0702 12.2873 20.1578C12.961 20.2484 13.856 20.25 15.15 20.25H15.6C16.894 20.25 17.7891 20.2484 18.4627 20.1578C19.1148 20.0702 19.4461 19.9117 19.6789 19.6789C19.9117 19.446 20.0702 19.1148 20.1579 18.4627C20.2484 17.789 20.25 16.894 20.25 15.6V15.15C20.25 13.856 20.2484 12.961 20.1579 12.2873C20.0702 11.6352 19.9117 11.304 19.6789 11.0711C19.4461 10.8383 19.1148 10.6798 18.4627 10.5922C17.7891 10.5016 16.894 10.5 15.6 10.5H15.15C13.856 10.5 12.961 10.5016 12.2873 10.5922Z" fill="#625F5D"/>
</svg>
