<svg width="24" height="24" viewBox="0 0 24 24" fill="none" xmlns="http://www.w3.org/2000/svg">
<path fill-rule="evenodd" clip-rule="evenodd" d="M2.77997 11.25H6.83333C7.24755 11.25 7.58333 11.5858 7.58333 12C7.58333 12.4142 7.24755 12.75 6.83333 12.75H2.77997C3.14188 17.2605 6.7395 20.8581 11.25 21.22V17.1667C11.25 16.7525 11.5858 16.4167 12 16.4167C12.4142 16.4167 12.75 16.7525 12.75 17.1667V21.22C17.2605 20.8581 20.8581 17.2605 21.22 12.75H17.1667C16.7525 12.75 16.4167 12.4142 16.4167 12C16.4167 11.5858 16.7525 11.25 17.1667 11.25H21.22C20.8581 6.7395 17.2605 3.14188 12.75 2.77997V6.83333C12.75 7.24755 12.4142 7.58333 12 7.58333C11.5858 7.58333 11.25 7.24755 11.25 6.83333V2.77997C6.7395 3.14188 3.14188 6.7395 2.77997 11.25ZM1.25 12C1.25 6.06294 6.06294 1.25 12 1.25C17.9371 1.25 22.75 6.06294 22.75 12C22.75 17.9371 17.9371 22.75 12 22.75C6.06294 22.75 1.25 17.9371 1.25 12Z" fill="#45995E"/>
<path d="M14 12C14 13.1046 13.1046 14 12 14C10.8954 14 10 13.1046 10 12C10 10.8954 10.8954 10 12 10C13.1046 10 14 10.8954 14 12Z" fill="#45995E"/>
</svg>
