<svg width="24" height="24" viewBox="0 0 24 24" fill="none" xmlns="http://www.w3.org/2000/svg">
<path fill-rule="evenodd" clip-rule="evenodd" d="M5.57378 2.25C5.5825 2.25 5.59124 2.25 5.6 2.25L11.4262 2.25C11.6837 2.24998 11.9202 2.24997 12.1179 2.26612C12.331 2.28353 12.5642 2.32339 12.7945 2.44074C13.1238 2.60852 13.3915 2.87623 13.5593 3.20552C13.6766 3.43583 13.7165 3.669 13.7339 3.88213C13.743 3.9935 13.747 4.11719 13.7487 4.25L19.4262 4.25C19.6837 4.24998 19.9202 4.24997 20.1179 4.26612C20.331 4.28353 20.5642 4.32339 20.7945 4.44074C21.1238 4.60852 21.3915 4.87624 21.5593 5.20552C21.6766 5.43583 21.7165 5.669 21.7339 5.88213C21.75 6.07981 21.75 6.31629 21.75 6.57377V13.4262C21.75 13.6837 21.75 13.9202 21.7339 14.1179C21.7165 14.331 21.6766 14.5642 21.5593 14.7945C21.3915 15.1238 21.1238 15.3915 20.7945 15.5593C20.5642 15.6766 20.331 15.7165 20.1179 15.7339C19.9202 15.75 19.6837 15.75 19.4262 15.75H14.5738C14.3163 15.75 14.0798 15.75 13.8821 15.7339C13.669 15.7165 13.4358 15.6766 13.2055 15.5593C12.8762 15.3915 12.6085 15.1238 12.4407 14.7945C12.3234 14.5642 12.2835 14.331 12.2661 14.1179C12.2563 13.9981 12.2525 13.8642 12.251 13.7199C12.2059 13.7258 12.1615 13.7303 12.1179 13.7339C11.9202 13.75 11.6837 13.75 11.4262 13.75L4.75 13.75L4.75 21C4.75 21.4142 4.41422 21.75 4 21.75C3.58579 21.75 3.25 21.4142 3.25 21L3.25 13.0008C3.25 13.0005 3.25 13.001 3.25 13.0008L3.25 4.6C3.25 4.59124 3.25 4.5825 3.25 4.57378C3.25 4.55646 3.25 4.53924 3.25 4.52211V4C3.25 3.93775 3.25759 3.87727 3.27188 3.81943C3.29201 3.6237 3.3348 3.41344 3.44074 3.20552C3.60852 2.87624 3.87624 2.60852 4.20552 2.44074C4.43583 2.32339 4.669 2.28353 4.88213 2.26612C5.07982 2.24997 5.3163 2.24998 5.57378 2.25ZM4.75 4.59672C4.75 4.59781 4.75 4.59891 4.75 4.6L4.75 12.25H11.4C11.6924 12.25 11.8666 12.2494 11.9957 12.2389C12.0745 12.2324 12.1077 12.2239 12.1165 12.2212C12.1612 12.1977 12.1977 12.1612 12.2212 12.1165C12.2239 12.1077 12.2324 12.0745 12.2389 11.9957C12.2494 11.8666 12.25 11.6924 12.25 11.4V4.6C12.25 4.3076 12.2494 4.13341 12.2389 4.00428C12.2324 3.92547 12.2239 3.89235 12.2212 3.88347C12.1977 3.83883 12.1612 3.80235 12.1165 3.77883C12.1077 3.77607 12.0745 3.76757 11.9957 3.76114C11.8666 3.75059 11.6924 3.75 11.4 3.75H5.6C5.3076 3.75 5.13341 3.75059 5.00428 3.76114C4.92547 3.76757 4.89234 3.77607 4.88346 3.77883C4.83883 3.80235 4.80235 3.83883 4.77883 3.88347C4.77607 3.89234 4.76757 3.92547 4.76114 4.00428C4.75063 4.13292 4.75001 4.30629 4.75 4.59672ZM4.77973 3.88088C4.77974 3.88091 4.77956 3.88144 4.77917 3.88239L4.77973 3.88088ZM4.88088 3.77973C4.88085 3.77972 4.88132 3.77952 4.88239 3.77917L4.88088 3.77973ZM12.1191 3.77973C12.1191 3.77974 12.1186 3.77956 12.1176 3.77918L12.1191 3.77973ZM12.2203 3.88088C12.2203 3.88085 12.2205 3.88132 12.2208 3.88236L12.2203 3.88088ZM12.2203 12.1191C12.2203 12.1191 12.2204 12.1186 12.2208 12.1176L12.2203 12.1191ZM12.1191 12.2203C12.1192 12.2203 12.1187 12.2205 12.1176 12.2208L12.1191 12.2203ZM13.75 11.4806V13.4C13.75 13.6924 13.7506 13.8666 13.7611 13.9957C13.7676 14.0745 13.7761 14.1077 13.7788 14.1165C13.8023 14.1612 13.8388 14.1977 13.8835 14.2212C13.8923 14.2239 13.9255 14.2324 14.0043 14.2389C14.1334 14.2494 14.3076 14.25 14.6 14.25H19.4C19.6924 14.25 19.8666 14.2494 19.9957 14.2389C20.0745 14.2324 20.1077 14.2239 20.1165 14.2212C20.1612 14.1977 20.1977 14.1612 20.2212 14.1165C20.2239 14.1077 20.2324 14.0745 20.2389 13.9957C20.2494 13.8666 20.25 13.6924 20.25 13.4V6.6C20.25 6.3076 20.2494 6.13341 20.2389 6.00428C20.2324 5.92546 20.2239 5.89234 20.2212 5.88346C20.1977 5.83882 20.1612 5.80235 20.1165 5.77883C20.1077 5.77607 20.0745 5.76758 19.9957 5.76114C19.8666 5.75059 19.6924 5.75 19.4 5.75H13.75L13.75 11.4262C13.75 11.4445 13.75 11.4626 13.75 11.4806ZM20.1191 5.77973C20.1191 5.77975 20.1186 5.77957 20.1176 5.77917L20.1191 5.77973ZM20.2203 5.88088C20.2203 5.88085 20.2205 5.88132 20.2208 5.88236L20.2203 5.88088ZM20.1191 14.2203C20.1192 14.2203 20.1187 14.2205 20.1176 14.2208L20.1191 14.2203ZM13.8809 14.2203C13.8809 14.2203 13.8815 14.2204 13.8824 14.2208L13.8809 14.2203ZM13.7797 14.1191C13.7797 14.1192 13.7795 14.1187 13.7792 14.1176L13.7797 14.1191Z" fill="#45995E"/>
</svg>
