<svg width="24" height="24" viewBox="0 0 24 24" fill="none" xmlns="http://www.w3.org/2000/svg">
<path fill-rule="evenodd" clip-rule="evenodd" d="M5.7 3.75C4.62304 3.75 3.75 4.62304 3.75 5.7C3.75 6.77696 4.62304 7.65 5.7 7.65C6.77696 7.65 7.65 6.77696 7.65 5.7C7.65 4.62304 6.77696 3.75 5.7 3.75ZM2.25 5.7C2.25 3.79462 3.79462 2.25 5.7 2.25C7.60538 2.25 9.15 3.79462 9.15 5.7C9.15 7.60538 7.60538 9.15 5.7 9.15C3.79462 9.15 2.25 7.60538 2.25 5.7ZM15.0301 6.50906C14.3175 6.45062 13.3263 6.45 11.941 6.45H11.55C11.1358 6.45 10.8 6.11421 10.8 5.7C10.8 5.28579 11.1358 4.95 11.55 4.95H11.9792C13.3181 4.94999 14.3712 4.94999 15.1527 5.01408C15.5495 5.04663 15.9099 5.09793 16.2216 5.18617C16.5325 5.27421 16.8414 5.41179 17.0908 5.64779C17.7282 6.25097 18.0107 7.13953 17.8386 8.00007C17.7712 8.33677 17.5985 8.62746 17.3955 8.87887C17.1921 9.13087 16.9274 9.3809 16.6222 9.63662C16.0213 10.1402 15.1615 10.7483 14.0684 11.5215L10.379 14.131C9.248 14.931 8.43915 15.5039 7.89116 15.9631C7.61902 16.1911 7.4375 16.3698 7.32155 16.5134C7.20513 16.6576 7.18522 16.7294 7.18229 16.7441C7.11143 17.0984 7.22774 17.4643 7.49022 17.7127C7.50107 17.7229 7.5588 17.7701 7.73712 17.8206C7.9147 17.8709 8.16608 17.9119 8.51995 17.9409C9.23249 17.9994 10.2237 18 11.609 18H12.45C12.8642 18 13.2 18.3358 13.2 18.75C13.2 19.1642 12.8642 19.5 12.45 19.5H11.5708C10.2319 19.5 9.17875 19.5 8.39733 19.4359C8.0005 19.4034 7.64006 19.3521 7.32843 19.2638C7.01753 19.1758 6.70865 19.0382 6.45924 18.8022C5.82181 18.199 5.53932 17.3105 5.71141 16.4499C5.77875 16.1132 5.95148 15.8225 6.15447 15.5711C6.35793 15.3191 6.62258 15.0691 6.92776 14.8134C7.52872 14.3098 8.38848 13.7017 9.4816 12.9285L13.171 10.319C14.302 9.51896 15.1109 8.94608 15.6588 8.4869C15.931 8.25887 16.1125 8.08018 16.2284 7.93658C16.3449 7.79239 16.3648 7.72057 16.3677 7.70591C16.4386 7.35157 16.3223 6.98569 16.0598 6.73733C16.0489 6.72705 15.9912 6.67992 15.8129 6.62942C15.6353 6.57914 15.3839 6.53808 15.0301 6.50906ZM18.3 16.35C17.223 16.35 16.35 17.223 16.35 18.3C16.35 19.377 17.223 20.25 18.3 20.25C19.377 20.25 20.25 19.377 20.25 18.3C20.25 17.223 19.377 16.35 18.3 16.35ZM14.85 18.3C14.85 16.3946 16.3946 14.85 18.3 14.85C20.2054 14.85 21.75 16.3946 21.75 18.3C21.75 20.2054 20.2054 21.75 18.3 21.75C16.3946 21.75 14.85 20.2054 14.85 18.3Z" fill="#45995E"/>
</svg>
