<svg width="24" height="24" viewBox="0 0 24 24" fill="none" xmlns="http://www.w3.org/2000/svg">
<path fill-rule="evenodd" clip-rule="evenodd" d="M11.4004 2.37903C11.745 2.20699 12.1505 2.20699 12.4952 2.37903C12.7915 2.52693 12.9501 2.79039 13.0348 2.94436C13.1256 3.10946 13.2198 3.32435 13.3195 3.55175L20.27 19.3989C20.3814 19.6528 20.4842 19.8871 20.5491 20.079C20.6068 20.2495 20.7041 20.5681 20.5981 20.9034C20.4776 21.2844 20.1788 21.5828 19.7976 21.7029C19.4623 21.8085 19.1438 21.7108 18.9733 21.6529C18.7814 21.5878 18.5473 21.4847 18.2935 21.373L11.9522 18.5829C11.9507 18.5822 11.9492 18.5816 11.9478 18.5809C11.9463 18.5816 11.9449 18.5822 11.9434 18.5829L5.60217 21.373C5.34834 21.4847 5.11415 21.5878 4.92228 21.6529C4.75181 21.7108 4.43331 21.8085 4.09796 21.7029C3.71675 21.5828 3.41802 21.2844 3.29752 20.9034C3.19152 20.5681 3.2888 20.2495 3.34649 20.079C3.41142 19.8871 3.5142 19.6528 3.6256 19.3988L10.5761 3.55175C10.6758 3.32435 10.77 3.10946 10.8608 2.94436C10.9454 2.79039 11.1041 2.52693 11.4004 2.37903ZM11.9478 4.15876C11.9445 4.1663 11.9411 4.17393 11.9377 4.18166L5.01161 19.9732C5.00779 19.9819 5.00402 19.9905 5.0003 19.999C5.00878 19.9953 5.01737 19.9915 5.02607 19.9877L11.3393 17.2099C11.3465 17.2067 11.3543 17.2032 11.3628 17.1994C11.4462 17.1622 11.5888 17.0986 11.7455 17.0723C11.8794 17.0499 12.0161 17.0499 12.1501 17.0723C12.3068 17.0986 12.4494 17.1622 12.5328 17.1994C12.5413 17.2032 12.5491 17.2067 12.5563 17.2099L18.8695 19.9877C18.8782 19.9915 18.8868 19.9953 18.8953 19.999C18.8916 19.9905 18.8878 19.9819 18.884 19.9732L11.9578 4.18166C11.9544 4.17393 11.9511 4.1663 11.9478 4.15876Z" fill="#45995E"/>
</svg>
