<svg width="24" height="24" viewBox="0 0 24 24" fill="none" xmlns="http://www.w3.org/2000/svg">
<path fill-rule="evenodd" clip-rule="evenodd" d="M12 2.75C6.89137 2.75 2.75 6.89137 2.75 12C2.75 17.1086 6.89137 21.25 12 21.25C17.1086 21.25 21.25 17.1086 21.25 12C21.25 6.89137 17.1086 2.75 12 2.75ZM1.25 12C1.25 6.06294 6.06294 1.25 12 1.25C17.9371 1.25 22.75 6.06294 22.75 12C22.75 17.9371 17.9371 22.75 12 22.75C6.06294 22.75 1.25 17.9371 1.25 12ZM15.0541 8.94594C15.0243 8.95583 14.9927 8.96633 14.9593 8.97748L10.4966 10.465C10.4882 10.4678 10.4804 10.4704 10.4729 10.4729C10.4704 10.4804 10.4678 10.4882 10.465 10.4966L8.97748 14.9593C8.96633 14.9927 8.95583 15.0243 8.94594 15.0541C8.97573 15.0442 9.00728 15.0337 9.04072 15.0225L13.5034 13.535C13.5118 13.5322 13.5196 13.5296 13.5271 13.5271C13.5296 13.5196 13.5322 13.5118 13.535 13.5034L15.0225 9.04072C15.0337 9.00727 15.0442 8.97573 15.0541 8.94594ZM15.1205 7.35989C15.293 7.31933 15.5747 7.26814 15.8693 7.37319C16.2227 7.49921 16.5008 7.77732 16.6268 8.13072C16.7319 8.42529 16.6807 8.70696 16.6401 8.87954C16.5987 9.05584 16.5282 9.26717 16.4548 9.4873L14.958 13.9777C14.955 13.9867 14.9518 13.9965 14.9484 14.007C14.9145 14.1104 14.8588 14.2808 14.7564 14.4305C14.6689 14.5584 14.5584 14.6689 14.4305 14.7564C14.2808 14.8588 14.1104 14.9145 14.007 14.9484C13.9965 14.9518 13.9867 14.955 13.9777 14.958L9.48729 16.4548C9.26716 16.5282 9.05584 16.5987 8.87954 16.6401C8.70696 16.6807 8.42529 16.7319 8.13072 16.6268C7.77732 16.5008 7.49921 16.2227 7.37319 15.8693C7.26814 15.5747 7.31933 15.293 7.35989 15.1205C7.40131 14.9442 7.47178 14.7328 7.54519 14.5127L9.042 10.0223C9.045 10.0133 9.04821 10.0035 9.05164 9.99299C9.08546 9.8896 9.14122 9.71917 9.24357 9.56954C9.33108 9.44162 9.44162 9.33108 9.56954 9.24357C9.71917 9.14122 9.8896 9.08546 9.99299 9.05164C10.0035 9.04821 10.0133 9.045 10.0223 9.042L14.5127 7.54519C14.7328 7.47179 14.9442 7.40132 15.1205 7.35989Z" fill="#45995E"/>
</svg>
