<svg width="26" height="26" viewBox="0 0 26 26" fill="none" xmlns="http://www.w3.org/2000/svg">
<path fill-rule="evenodd" clip-rule="evenodd" d="M6.79999 12.3H1.72132C2.06865 6.61673 6.61673 2.06865 12.3 1.72132V6.79999C12.3 7.18659 12.6134 7.49999 13 7.49999C13.3866 7.49999 13.7 7.18659 13.7 6.79999V1.72132C19.3832 2.06865 23.9313 6.61673 24.2787 12.3H19.2C18.8134 12.3 18.5 12.6134 18.5 13C18.5 13.3866 18.8134 13.7 19.2 13.7H24.2787C23.9313 19.3832 19.3832 23.9313 13.7 24.2787V19.2C13.7 18.8134 13.3866 18.5 13 18.5C12.6134 18.5 12.3 18.8134 12.3 19.2V24.2787C6.61673 23.9313 2.06865 19.3832 1.72132 13.7H6.79999C7.18659 13.7 7.49999 13.3866 7.49999 13C7.49999 12.6134 7.18659 12.3 6.79999 12.3ZM13 0.299988C5.98597 0.299988 0.299988 5.98597 0.299988 13C0.299988 20.014 5.98597 25.7 13 25.7C20.014 25.7 25.7 20.014 25.7 13C25.7 5.98597 20.014 0.299988 13 0.299988ZM12.6667 15.3333C14.1394 15.3333 15.3333 14.1394 15.3333 12.6667C15.3333 11.1939 14.1394 9.99999 12.6667 9.99999C11.1939 9.99999 9.99999 11.1939 9.99999 12.6667C9.99999 14.1394 11.1939 15.3333 12.6667 15.3333Z" fill="#45995E"/>
</svg>
