<svg width="24" height="24" viewBox="0 0 24 24" fill="none" xmlns="http://www.w3.org/2000/svg">
<path fill-rule="evenodd" clip-rule="evenodd" d="M12 2.75C10.7574 2.75 9.75 3.75736 9.75 5C9.75 6.24264 10.7574 7.25 12 7.25C13.2426 7.25 14.25 6.24264 14.25 5C14.25 3.75736 13.2426 2.75 12 2.75ZM8.25 5C8.25 2.92893 9.92893 1.25 12 1.25C14.0711 1.25 15.75 2.92893 15.75 5C15.75 6.81422 14.4617 8.32753 12.75 8.67499V16C12.75 16.4142 12.4142 16.75 12 16.75C11.5858 16.75 11.25 16.4142 11.25 16V8.67499C9.53832 8.32753 8.25 6.81422 8.25 5ZM8.73591 12.2297C8.81582 12.6362 8.55112 13.0304 8.14469 13.1103C6.442 13.4451 5.04523 13.9865 4.09494 14.6274C3.12809 15.2795 2.75 15.9392 2.75 16.5C2.75 17.2637 3.47401 18.2048 5.23671 18.998C6.929 19.7596 9.31952 20.25 12 20.25C14.6805 20.25 17.071 19.7596 18.7633 18.998C20.526 18.2048 21.25 17.2637 21.25 16.5C21.25 15.9392 20.8719 15.2795 19.9051 14.6274C18.9548 13.9865 17.558 13.4451 15.8553 13.1103C15.4489 13.0304 15.1842 12.6362 15.2641 12.2297C15.344 11.8233 15.7383 11.5586 16.1447 11.6385C17.9738 11.9982 19.577 12.5969 20.7438 13.3838C21.894 14.1596 22.75 15.2155 22.75 16.5C22.75 18.2216 21.2354 19.5305 19.3788 20.3659C17.4518 21.2331 14.8424 21.75 12 21.75C9.15764 21.75 6.54815 21.2331 4.62116 20.3659C2.76457 19.5305 1.25 18.2216 1.25 16.5C1.25 15.2155 2.106 14.1596 3.2562 13.3838C4.42296 12.5969 6.02619 11.9982 7.85531 11.6385C8.26174 11.5586 8.656 11.8233 8.73591 12.2297Z" fill="#45995E"/>
</svg>
