<svg width="24" height="24" viewBox="0 0 24 24" fill="none" xmlns="http://www.w3.org/2000/svg">
<path fill-rule="evenodd" clip-rule="evenodd" d="M11.6341 2.34528C11.8713 2.21274 12.1617 2.21885 12.3931 2.36126L17.7344 5.64825C17.9078 5.75488 18.0789 5.86013 18.2116 5.95961C18.3472 6.06122 18.5454 6.22899 18.655 6.49548C18.7899 6.82335 18.7792 7.19308 18.6256 7.51262C18.5008 7.77234 18.2933 7.9284 18.1521 8.02202C18.0138 8.11368 17.8369 8.20889 17.6577 8.30535L12.75 10.948V17C12.75 17.4142 12.4142 17.75 12 17.75C11.5858 17.75 11.25 17.4142 11.25 17V10.5154C11.2498 10.5056 11.2498 10.4957 11.25 10.4859V3C11.25 2.72829 11.397 2.47783 11.6341 2.34528ZM12.75 9.24434L16.9222 6.99779C16.949 6.98336 16.9743 6.96969 16.9985 6.95666C16.9751 6.94226 16.9506 6.92714 16.9246 6.91119L12.75 4.34217V9.24434ZM8.73591 13.2297C8.81582 13.6362 8.55112 14.0304 8.14469 14.1103C6.442 14.4451 5.04523 14.9865 4.09494 15.6274C3.12809 16.2795 2.75 16.9392 2.75 17.5C2.75 18.2637 3.47401 19.2048 5.23671 19.998C6.929 20.7596 9.31952 21.25 12 21.25C14.6805 21.25 17.071 20.7596 18.7633 19.998C20.526 19.2048 21.25 18.2637 21.25 17.5C21.25 16.9392 20.8719 16.2795 19.9051 15.6274C18.9548 14.9865 17.558 14.4451 15.8553 14.1103C15.4489 14.0304 15.1842 13.6362 15.2641 13.2297C15.344 12.8233 15.7383 12.5586 16.1447 12.6385C17.9738 12.9982 19.577 13.5969 20.7438 14.3838C21.894 15.1596 22.75 16.2155 22.75 17.5C22.75 19.2216 21.2354 20.5305 19.3788 21.3659C17.4518 22.2331 14.8424 22.75 12 22.75C9.15764 22.75 6.54815 22.2331 4.62116 21.3659C2.76457 20.5305 1.25 19.2216 1.25 17.5C1.25 16.2155 2.106 15.1596 3.2562 14.3838C4.42296 13.5969 6.02619 12.9982 7.85531 12.6385C8.26174 12.5586 8.656 12.8233 8.73591 13.2297Z" fill="#45995E"/>
</svg>
