<svg width="24" height="24" viewBox="0 0 24 24" fill="none" xmlns="http://www.w3.org/2000/svg">
<path fill-rule="evenodd" clip-rule="evenodd" d="M11.5556 4.75C7.79695 4.75 4.75 7.79695 4.75 11.5556C4.75 15.3142 7.79695 18.3611 11.5556 18.3611C13.3871 18.3611 15.0496 17.6376 16.273 16.4608C16.298 16.4249 16.3266 16.3906 16.3587 16.3586C16.3907 16.3265 16.4249 16.2979 16.4609 16.2729C17.6376 15.0496 18.3611 13.387 18.3611 11.5556C18.3611 7.79695 15.3142 4.75 11.5556 4.75ZM17.935 16.8743C19.1375 15.4335 19.8611 13.579 19.8611 11.5556C19.8611 6.96852 16.1426 3.25 11.5556 3.25C6.96852 3.25 3.25 6.96852 3.25 11.5556C3.25 16.1426 6.96852 19.8611 11.5556 19.8611C13.579 19.8611 15.4335 19.1375 16.8743 17.9349L19.4697 20.5303C19.7626 20.8232 20.2374 20.8232 20.5303 20.5303C20.8232 20.2374 20.8232 19.7626 20.5303 19.4697L17.935 16.8743Z" fill="#45995E"/>
</svg>
