<svg width="24" height="24" viewBox="0 0 24 24" fill="none" xmlns="http://www.w3.org/2000/svg">
<path fill-rule="evenodd" clip-rule="evenodd" d="M11.9999 2.84999C6.9465 2.84999 2.8499 6.94659 2.8499 12C2.8499 17.0534 6.9465 21.15 11.9999 21.15C17.0533 21.15 21.1499 17.0534 21.1499 12C21.1499 6.94659 17.0533 2.84999 11.9999 2.84999ZM1.1499 12C1.1499 6.0077 6.00761 1.14999 11.9999 1.14999C17.9922 1.14999 22.8499 6.0077 22.8499 12C22.8499 17.9923 17.9922 22.85 11.9999 22.85C6.00761 22.85 1.1499 17.9923 1.1499 12ZM17.1009 8.39895C17.4329 8.7309 17.4329 9.26909 17.1009 9.60104L11.1009 15.601C10.769 15.933 10.2308 15.933 9.89886 15.601L6.89886 12.601C6.56692 12.2691 6.56692 11.7309 6.89886 11.399C7.23081 11.067 7.769 11.067 8.10094 11.399L10.4999 13.7979L15.8989 8.39895C16.2308 8.06701 16.769 8.06701 17.1009 8.39895Z" fill="white"/>
</svg>
