<svg width="18" height="20" viewBox="0 0 18 20" fill="none" xmlns="http://www.w3.org/2000/svg">
<path fill-rule="evenodd" clip-rule="evenodd" d="M8.4004 0.379029C8.74505 0.20699 9.15052 0.20699 9.49517 0.379029C9.79146 0.526931 9.95013 0.790391 10.0348 0.944356C10.1256 1.10946 10.2198 1.32435 10.3195 1.55175L17.27 17.3989C17.3814 17.6528 17.4842 17.8871 17.5491 18.079C17.6068 18.2495 17.7041 18.5681 17.5981 18.9034C17.4776 19.2844 17.1788 19.5828 16.7976 19.7029C16.4623 19.8085 16.1438 19.7108 15.9733 19.6529C15.7814 19.5878 15.5473 19.4847 15.2935 19.373L8.9522 16.5829C8.95071 16.5822 8.94924 16.5816 8.94778 16.5809C8.94633 16.5816 8.94486 16.5822 8.94337 16.5829L2.60217 19.373C2.34834 19.4847 2.11415 19.5878 1.92228 19.6529C1.75181 19.7108 1.43331 19.8085 1.09796 19.7029C0.716746 19.5828 0.418015 19.2844 0.297519 18.9034C0.191516 18.5681 0.288802 18.2495 0.346492 18.079C0.411417 17.8871 0.5142 17.6528 0.6256 17.3988L7.57608 1.55175C7.67579 1.32435 7.77001 1.10946 7.86079 0.944355C7.94544 0.790391 8.10411 0.526931 8.4004 0.379029ZM8.94779 2.15876C8.94448 2.1663 8.94113 2.17393 8.93774 2.18166L2.01161 17.9732C2.00779 17.9819 2.00402 17.9905 2.0003 17.999C2.00878 17.9953 2.01737 17.9915 2.02607 17.9877L8.33926 15.2099C8.34646 15.2067 8.35432 15.2032 8.36279 15.1994C8.44617 15.1622 8.58876 15.0986 8.74551 15.0723C8.87943 15.0499 9.01614 15.0499 9.15006 15.0723C9.30681 15.0986 9.4494 15.1622 9.53278 15.1994C9.54125 15.2032 9.54911 15.2067 9.55631 15.2099L15.8695 17.9877C15.8782 17.9915 15.8868 17.9953 15.8953 17.999C15.8916 17.9905 15.8878 17.9819 15.884 17.9732L8.95783 2.18166C8.95444 2.17393 8.95109 2.1663 8.94779 2.15876Z" fill="#45995E"/>
</svg>
